<svg width="150" height="150" viewBox="0 0 150 150" fill="none" xmlns="http://www.w3.org/2000/svg">
<circle cx="75" cy="75" r="75" fill="#EEEEEE"/>
<path d="M54.49 39.8759H61.255L71.505 65.7059L81.8575 39.8759H88.725L76.015 70.9334L89.955 103.836L116.298 39.3634H124.088L93.235 112.138H86.88L71.6075 76.1609L56.2325 112.138H49.98L19.23 39.3634H26.9175L53.3625 103.836L67.2 70.9334L54.49 39.8759Z" fill="#240041"/>
<path d="M54.49 39.8759V37.8759H51.5105L52.639 40.6334L54.49 39.8759ZM61.255 39.8759L63.114 39.1382L62.6131 37.8759H61.255V39.8759ZM71.505 65.7059L69.646 66.4436L71.4958 71.105L73.3614 66.45L71.505 65.7059ZM81.8575 39.8759V37.8759H80.5044L80.0011 39.1319L81.8575 39.8759ZM88.725 39.8759L90.576 40.6334L91.7045 37.8759H88.725V39.8759ZM76.015 70.9334L74.164 70.1759L73.8486 70.9468L74.1735 71.7136L76.015 70.9334ZM89.955 103.836L88.1135 104.616L89.9885 109.042L91.8064 104.592L89.955 103.836ZM116.298 39.3634V37.3634H114.954L114.446 38.607L116.298 39.3634ZM124.088 39.3634L125.929 40.1441L127.108 37.3634H124.088V39.3634ZM93.235 112.138V114.138H94.5594L95.0764 112.919L93.235 112.138ZM86.88 112.138L85.039 112.92L85.5563 114.138H86.88V112.138ZM71.6075 76.1609L73.4485 75.3794L71.6137 71.0571L69.7684 75.375L71.6075 76.1609ZM56.2325 112.138V114.138H57.5528L58.0716 112.924L56.2325 112.138ZM49.98 112.138L48.1377 112.917L48.6539 114.138H49.98V112.138ZM19.23 39.3634V37.3634H16.2137L17.3877 40.1419L19.23 39.3634ZM26.9175 39.3634L28.7679 38.6044L28.2589 37.3634H26.9175V39.3634ZM53.3625 103.836L51.5121 104.595L53.3394 109.05L55.2061 104.611L53.3625 103.836ZM67.2 70.9334L69.0436 71.7088L69.3653 70.9439L69.051 70.1759L67.2 70.9334ZM54.49 41.8759H61.255V37.8759H54.49V41.8759ZM59.396 40.6136L69.646 66.4436L73.364 64.9682L63.114 39.1382L59.396 40.6136ZM73.3614 66.45L83.7139 40.62L80.0011 39.1319L69.6486 64.9619L73.3614 66.45ZM81.8575 41.8759H88.725V37.8759H81.8575V41.8759ZM86.874 39.1184L74.164 70.1759L77.866 71.6909L90.576 40.6334L86.874 39.1184ZM74.1735 71.7136L88.1135 104.616L91.7965 103.056L77.8565 70.1532L74.1735 71.7136ZM91.8064 104.592L118.149 40.1199L114.446 38.607L88.1036 103.079L91.8064 104.592ZM116.298 41.3634H124.088V37.3634H116.298V41.3634ZM122.246 38.5828L91.3936 111.358L95.0764 112.919L125.929 40.1441L122.246 38.5828ZM93.235 110.138H86.88V114.138H93.235V110.138ZM88.721 111.357L73.4485 75.3794L69.7665 76.9424L85.039 112.92L88.721 111.357ZM69.7684 75.375L54.3934 111.352L58.0716 112.924L73.4466 76.9469L69.7684 75.375ZM56.2325 110.138H49.98V114.138H56.2325V110.138ZM51.8223 111.36L21.0723 38.585L17.3877 40.1419L48.1377 112.917L51.8223 111.36ZM19.23 41.3634H26.9175V37.3634H19.23V41.3634ZM25.0671 40.1224L51.5121 104.595L55.2129 103.077L28.7679 38.6044L25.0671 40.1224ZM55.2061 104.611L69.0436 71.7088L65.3564 70.1581L51.5189 103.061L55.2061 104.611ZM69.051 70.1759L56.341 39.1184L52.639 40.6334L65.349 71.6909L69.051 70.1759Z" fill="#240041"/>
<line x1="57.5382" y1="115.93" x2="92.0459" y2="32.8083" stroke="#EEEEEE"/>
<line x1="57.5382" y1="115.93" x2="92.0459" y2="32.8083" stroke="#EEEEEE"/>
<line x1="78.5382" y1="69.8897" x2="93.875" y2="32.9467" stroke="#EEEEEE"/>
<line x1="77.5382" y1="69.8897" x2="92.875" y2="32.9467" stroke="#EEEEEE"/>
<line x1="89.5404" y1="96.3354" x2="77.5404" y2="68.3354" stroke="#EEEEEE"/>
<rect x="106" y="88" width="26" height="26" fill="#00C9B1"/>
</svg>
