<svg width="311" height="89" viewBox="0 0 311 89" fill="none" xmlns="http://www.w3.org/2000/svg">
<rect y="6" width="24" height="22" fill="#EEEEEE" fill-opacity="0.933333"/>
<path d="M40.49 12.7375H47.255L57.505 38.5675L67.8575 12.7375H74.725L62.015 43.795L75.955 76.6975L102.298 12.225H110.088L79.235 85H72.88L57.6075 49.0225L42.2325 85H35.98L5.23 12.225H12.9175L39.3625 76.6975L53.2 43.795L40.49 12.7375Z" fill="#240041"/>
<path d="M40.49 12.7375V10.7375H37.5105L38.639 13.495L40.49 12.7375ZM47.255 12.7375L49.114 11.9998L48.6131 10.7375H47.255V12.7375ZM57.505 38.5675L55.646 39.3052L57.4958 43.9665L59.3614 39.3116L57.505 38.5675ZM67.8575 12.7375V10.7375H66.5044L66.0011 11.9934L67.8575 12.7375ZM74.725 12.7375L76.576 13.495L77.7045 10.7375H74.725V12.7375ZM62.015 43.795L60.164 43.0375L59.8486 43.8083L60.1735 44.5752L62.015 43.795ZM75.955 76.6975L74.1135 77.4777L75.9885 81.9033L77.8064 77.454L75.955 76.6975ZM102.298 12.225V10.225H100.954L100.446 11.4685L102.298 12.225ZM110.088 12.225L111.929 13.0056L113.108 10.225H110.088V12.225ZM79.235 85V87H80.5594L81.0764 85.7806L79.235 85ZM72.88 85L71.039 85.7815L71.5563 87H72.88V85ZM57.6075 49.0225L59.4485 48.241L57.6137 43.9187L55.7684 48.2366L57.6075 49.0225ZM42.2325 85V87H43.5528L44.0716 85.7859L42.2325 85ZM35.98 85L34.1377 85.7784L34.6539 87H35.98V85ZM5.23 12.225V10.225H2.21372L3.38771 13.0034L5.23 12.225ZM12.9175 12.225L14.7679 11.466L14.2589 10.225H12.9175V12.225ZM39.3625 76.6975L37.5121 77.4565L39.3394 81.9114L41.2061 77.4728L39.3625 76.6975ZM53.2 43.795L55.0436 44.5703L55.3653 43.8055L55.051 43.0375L53.2 43.795ZM40.49 14.7375H47.255V10.7375H40.49V14.7375ZM45.396 13.4752L55.646 39.3052L59.364 37.8298L49.114 11.9998L45.396 13.4752ZM59.3614 39.3116L69.7139 13.4815L66.0011 11.9934L55.6486 37.8234L59.3614 39.3116ZM67.8575 14.7375H74.725V10.7375H67.8575V14.7375ZM72.874 11.98L60.164 43.0375L63.866 44.5525L76.576 13.495L72.874 11.98ZM60.1735 44.5752L74.1135 77.4777L77.7965 75.9173L63.8565 43.0148L60.1735 44.5752ZM77.8064 77.454L104.149 12.9815L100.446 11.4685L74.1036 75.941L77.8064 77.454ZM102.298 14.225H110.088V10.225H102.298V14.225ZM108.246 11.4444L77.3936 84.2194L81.0764 85.7806L111.929 13.0056L108.246 11.4444ZM79.235 83H72.88V87H79.235V83ZM74.721 84.2185L59.4485 48.241L55.7665 49.804L71.039 85.7815L74.721 84.2185ZM55.7684 48.2366L40.3934 84.2141L44.0716 85.7859L59.4466 49.8084L55.7684 48.2366ZM42.2325 83H35.98V87H42.2325V83ZM37.8223 84.2216L7.07229 11.4466L3.38771 13.0034L34.1377 85.7784L37.8223 84.2216ZM5.23 14.225H12.9175V10.225H5.23V14.225ZM11.0671 12.984L37.5121 77.4565L41.2129 75.9385L14.7679 11.466L11.0671 12.984ZM41.2061 77.4728L55.0436 44.5703L51.3564 43.0197L37.5189 75.9222L41.2061 77.4728ZM55.051 43.0375L42.341 11.98L38.639 13.495L51.349 44.5525L55.051 43.0375Z" fill="#240041"/>
<path d="M98.37 53.421V76.791H132.195V87H86.07V10.125H131.826L130.35 20.334H98.37V43.704H127.521V53.421H98.37Z" fill="#240041"/>
<path d="M132.07 10.125H161.59C168.806 10.125 174.095 11.683 177.457 14.799C180.901 17.833 182.623 22.63 182.623 29.19C182.623 33.7 182.008 37.39 180.778 40.26C179.63 43.13 177.744 45.508 175.12 47.394V48.132C178.728 49.362 181.516 51.494 183.484 54.528C185.452 57.48 186.436 61.088 186.436 65.352C186.436 72.322 184.632 77.693 181.024 81.465C177.498 85.155 172.332 87 165.526 87H132.07V10.125ZM144.37 83.556L138.835 78.021H163.804C167.494 78.021 170.118 76.996 171.676 74.946C173.316 72.814 174.136 69.37 174.136 64.614C174.136 60.268 173.357 57.193 171.799 55.389C170.241 53.503 167.617 52.56 163.927 52.56H142.402V43.95H160.483C164.173 43.95 166.715 43.048 168.109 41.244C169.585 39.44 170.323 36.242 170.323 31.65C170.323 26.894 169.626 23.614 168.232 21.81C166.838 20.006 164.296 19.104 160.606 19.104H138.835L144.37 13.569V83.556Z" fill="#240041"/>
<path d="M202.921 52.929L221.248 10.125H234.04L211.285 60.555V87H198.985V60.555L176.23 10.125H189.022L207.349 52.929H202.921Z" fill="#240041"/>
<path d="M284.96 87H271.184L223.214 10.125H236.99L284.96 87ZM255.563 53.421L235.637 87H222.23L249.29 42.105L255.563 53.421ZM250.643 43.704L270.569 10.125H283.976L257.039 55.02L250.643 43.704Z" fill="#240041"/>
<rect x="129" y="11" width="6" height="9.34" fill="#240041"/>
<rect x="170" y="11" width="10" height="6" fill="#240041"/>
<rect width="58" height="0.87" transform="matrix(1 0 0 -1 131 11)" fill="#240041"/>
<line x1="85.5398" y1="46.8044" x2="101.365" y2="9.56784" stroke="#EEEEEE"/>
<line x1="43.5382" y1="88.7916" x2="78.0459" y2="5.66984" stroke="#EEEEEE"/>
<line x1="43.5382" y1="88.7916" x2="78.0459" y2="5.66984" stroke="#EEEEEE"/>
<line x1="43.5382" y1="88.7916" x2="78.0459" y2="5.66984" stroke="#EEEEEE"/>
<line x1="64.5382" y1="42.7513" x2="79.875" y2="5.80829" stroke="#EEEEEE"/>
<line x1="63.5382" y1="42.7513" x2="78.875" y2="5.80829" stroke="#EEEEEE"/>
<line x1="64.5382" y1="42.7513" x2="79.875" y2="5.80829" stroke="#EEEEEE"/>
<line x1="65.5382" y1="42.7513" x2="80.875" y2="5.80829" stroke="#EEEEEE"/>
<line x1="75.5404" y1="69.197" x2="63.5404" y2="41.197" stroke="#EEEEEE"/>
<line x1="221.54" y1="40.041" x2="237.365" y2="2.80441" stroke="#EEEEEE"/>
<line x1="124.54" y1="38.041" x2="140.365" y2="0.804413" stroke="#EEEEEE"/>
<line x1="84.5394" y1="79.042" x2="113.993" y2="9.32878" stroke="#EEEEEE"/>
<line x1="198.544" y1="60.2056" x2="175.544" y2="9.20556" stroke="#EEEEEE"/>
<line x1="131.46" y1="75.8046" x2="136.93" y2="88.6917" stroke="#EEEEEE"/>
<line x1="198.5" y1="61" x2="198.5" y2="60" stroke="#EEEEEE"/>
<rect x="285" y="61" width="26" height="26" fill="#00C9B1"/>
</svg>
